<?xml version="1.0" standalone="no"?>
<svg xmlns="http://www.w3.org/2000/svg" xmlns:xlink="http://www.w3.org/1999/xlink" width="1920" zoomAndPan="magnify" viewBox="0 0 1440 809.999993" height="1080" preserveAspectRatio="xMidYMid meet" version="1.0"><defs><g/><filter id="glass-effect" x="-50%" y="-50%" width="200%" height="200%">
                <feGaussianBlur in="SourceAlpha" stdDeviation="2" result="blur"/>
                <feOffset dx="0" dy="-1" in="blur" result="offsetblur"/>
                <feFlood flood-color="rgba(255,255,255,0.4)" result="glassFill"/>
                <feComposite in="glassFill" in2="offsetblur" operator="in" result="glassShadow"/>
                <feOffset dx="0" dy="1" in="blur" result="offsetblur2"/>
                <feFlood flood-color="rgba(255,255,255,0.8)" result="edgeLight"/>
                <feComposite in="edgeLight" in2="offsetblur2" operator="in" result="edgeHighlight"/>
                <feMerge>
                    <feMergeNode in="glassShadow"/>
                    <feMergeNode in="edgeHighlight"/>
                    <feMergeNode in="SourceGraphic"/>
                </feMerge>
            </filter><linearGradient id="glass-fill" x1="0%" y1="0%" x2="100%" y2="100%">
                <stop offset="0%" style="stop-color:rgba(255,255,255,0.35)"/>
                <stop offset="50%" style="stop-color:rgba(255,255,255,0.15)"/>
                <stop offset="100%" style="stop-color:rgba(255,255,255,0.25)"/>
            </linearGradient></defs><g fill="#ffffff" fill-opacity="1"><g transform="translate(431.326167, 438.374998)"><g><path d="M 21.71875 -11.6875 C 22.382812 -11.625 23.160156 -11.578125 24.046875 -11.546875 C 24.941406 -11.515625 26.003906 -11.5 27.234375 -11.5 C 34.410156 -11.5 39.726562 -13.304688 43.1875 -16.921875 C 46.65625 -20.546875 48.390625 -25.546875 48.390625 -31.921875 C 48.390625 -38.609375 46.734375 -43.664062 43.421875 -47.09375 C 40.109375 -50.53125 34.863281 -52.25 27.6875 -52.25 C 26.707031 -52.25 25.695312 -52.234375 24.65625 -52.203125 C 23.613281 -52.171875 22.632812 -52.097656 21.71875 -51.984375 Z M 63.203125 -31.921875 C 63.203125 -26.398438 62.34375 -21.582031 60.625 -17.46875 C 58.90625 -13.363281 56.46875 -9.960938 53.3125 -7.265625 C 50.15625 -4.566406 46.304688 -2.539062 41.765625 -1.1875 C 37.222656 0.15625 32.132812 0.828125 26.5 0.828125 C 23.914062 0.828125 20.90625 0.71875 17.46875 0.5 C 14.039062 0.289062 10.671875 -0.148438 7.359375 -0.828125 L 7.359375 -62.921875 C 10.671875 -63.535156 14.117188 -63.945312 17.703125 -64.15625 C 21.296875 -64.375 24.378906 -64.484375 26.953125 -64.484375 C 32.410156 -64.484375 37.363281 -63.867188 41.8125 -62.640625 C 46.257812 -61.421875 50.078125 -59.492188 53.265625 -56.859375 C 56.453125 -54.222656 58.90625 -50.847656 60.625 -46.734375 C 62.34375 -42.628906 63.203125 -37.691406 63.203125 -31.921875 Z M 63.203125 -31.921875 " class="glass-element" fill="url(#glass-fill)" filter="url(#glass-effect)" stroke="none"/></g></g></g><g fill="#ffffff" fill-opacity="1"><g transform="translate(499.124454, 438.374998)"><g><path d="M 35.609375 -36.25 C 34.378906 -36.550781 32.9375 -36.867188 31.28125 -37.203125 C 29.625 -37.546875 27.84375 -37.71875 25.9375 -37.71875 C 25.082031 -37.71875 24.054688 -37.640625 22.859375 -37.484375 C 21.660156 -37.335938 20.753906 -37.171875 20.140625 -36.984375 L 20.140625 0 L 6.4375 0 L 6.4375 -45.8125 C 8.894531 -46.675781 11.789062 -47.488281 15.125 -48.25 C 18.46875 -49.019531 22.195312 -49.40625 26.3125 -49.40625 C 27.050781 -49.40625 27.941406 -49.359375 28.984375 -49.265625 C 30.023438 -49.171875 31.066406 -49.046875 32.109375 -48.890625 C 33.148438 -48.742188 34.191406 -48.5625 35.234375 -48.34375 C 36.273438 -48.132812 37.164062 -47.875 37.90625 -47.5625 Z M 35.609375 -36.25 " class="glass-element" fill="url(#glass-fill)" filter="url(#glass-effect)" stroke="none"/></g></g></g><g fill="#ffffff" fill-opacity="1"><g transform="translate(537.025235, 438.374998)"><g><path d="M 4.140625 -23.828125 C 4.140625 -28.117188 4.796875 -31.875 6.109375 -35.09375 C 7.429688 -38.3125 9.164062 -40.992188 11.3125 -43.140625 C 13.457031 -45.296875 15.925781 -46.925781 18.71875 -48.03125 C 21.507812 -49.132812 24.378906 -49.6875 27.328125 -49.6875 C 34.191406 -49.6875 39.617188 -47.582031 43.609375 -43.375 C 47.597656 -39.175781 49.59375 -33 49.59375 -24.84375 C 49.59375 -24.039062 49.5625 -23.164062 49.5 -22.21875 C 49.4375 -21.269531 49.375 -20.425781 49.3125 -19.6875 L 18.21875 -19.6875 C 18.519531 -16.863281 19.835938 -14.625 22.171875 -12.96875 C 24.503906 -11.3125 27.632812 -10.484375 31.5625 -10.484375 C 34.070312 -10.484375 36.535156 -10.710938 38.953125 -11.171875 C 41.378906 -11.640625 43.359375 -12.207031 44.890625 -12.875 L 46.734375 -1.75 C 45.992188 -1.382812 45.007812 -1.015625 43.78125 -0.640625 C 42.5625 -0.273438 41.195312 0.0390625 39.6875 0.3125 C 38.1875 0.59375 36.578125 0.820312 34.859375 1 C 33.148438 1.1875 31.4375 1.28125 29.71875 1.28125 C 25.363281 1.28125 21.578125 0.640625 18.359375 -0.640625 C 15.140625 -1.929688 12.46875 -3.695312 10.34375 -5.9375 C 8.226562 -8.175781 6.664062 -10.828125 5.65625 -13.890625 C 4.644531 -16.953125 4.140625 -20.265625 4.140625 -23.828125 Z M 36.34375 -29.078125 C 36.28125 -30.234375 36.078125 -31.363281 35.734375 -32.46875 C 35.398438 -33.570312 34.878906 -34.550781 34.171875 -35.40625 C 33.472656 -36.269531 32.585938 -36.976562 31.515625 -37.53125 C 30.441406 -38.082031 29.109375 -38.359375 27.515625 -38.359375 C 25.972656 -38.359375 24.648438 -38.097656 23.546875 -37.578125 C 22.441406 -37.054688 21.519531 -36.363281 20.78125 -35.5 C 20.050781 -34.644531 19.484375 -33.648438 19.078125 -32.515625 C 18.679688 -31.378906 18.394531 -30.234375 18.21875 -29.078125 Z M 36.34375 -29.078125 " class="glass-element" fill="url(#glass-fill)" filter="url(#glass-effect)" stroke="none"/></g></g></g><g fill="#ffffff" fill-opacity="1"><g transform="translate(590.748709, 438.374998)"><g><path d="M 24.9375 -9.5625 C 26.28125 -9.5625 27.566406 -9.59375 28.796875 -9.65625 C 30.023438 -9.71875 31.003906 -9.8125 31.734375 -9.9375 L 31.734375 -20.328125 C 31.179688 -20.453125 30.351562 -20.578125 29.25 -20.703125 C 28.144531 -20.828125 27.132812 -20.890625 26.21875 -20.890625 C 24.925781 -20.890625 23.710938 -20.8125 22.578125 -20.65625 C 21.453125 -20.5 20.457031 -20.207031 19.59375 -19.78125 C 18.738281 -19.351562 18.066406 -18.769531 17.578125 -18.03125 C 17.085938 -17.289062 16.84375 -16.367188 16.84375 -15.265625 C 16.84375 -13.117188 17.5625 -11.628906 19 -10.796875 C 20.4375 -9.972656 22.414062 -9.5625 24.9375 -9.5625 Z M 23.828125 -49.6875 C 27.878906 -49.6875 31.253906 -49.222656 33.953125 -48.296875 C 36.648438 -47.378906 38.8125 -46.0625 40.4375 -44.34375 C 42.0625 -42.625 43.207031 -40.535156 43.875 -38.078125 C 44.550781 -35.628906 44.890625 -32.90625 44.890625 -29.90625 L 44.890625 -1.375 C 42.929688 -0.945312 40.203125 -0.441406 36.703125 0.140625 C 33.210938 0.722656 28.984375 1.015625 24.015625 1.015625 C 20.878906 1.015625 18.039062 0.738281 15.5 0.1875 C 12.957031 -0.363281 10.765625 -1.269531 8.921875 -2.53125 C 7.078125 -3.789062 5.664062 -5.429688 4.6875 -7.453125 C 3.707031 -9.472656 3.21875 -11.957031 3.21875 -14.90625 C 3.21875 -17.726562 3.785156 -20.117188 4.921875 -22.078125 C 6.054688 -24.046875 7.570312 -25.609375 9.46875 -26.765625 C 11.375 -27.929688 13.550781 -28.773438 16 -29.296875 C 18.457031 -29.816406 21.003906 -30.078125 23.640625 -30.078125 C 25.421875 -30.078125 27 -30 28.375 -29.84375 C 29.757812 -29.695312 30.878906 -29.5 31.734375 -29.25 L 31.734375 -30.546875 C 31.734375 -32.878906 31.03125 -34.75 29.625 -36.15625 C 28.21875 -37.5625 25.765625 -38.265625 22.265625 -38.265625 C 19.929688 -38.265625 17.628906 -38.097656 15.359375 -37.765625 C 13.085938 -37.429688 11.125 -36.957031 9.46875 -36.34375 L 7.734375 -47.375 C 8.523438 -47.625 9.519531 -47.882812 10.71875 -48.15625 C 11.914062 -48.4375 13.21875 -48.679688 14.625 -48.890625 C 16.039062 -49.109375 17.53125 -49.296875 19.09375 -49.453125 C 20.65625 -49.609375 22.234375 -49.6875 23.828125 -49.6875 Z M 23.828125 -49.6875 " class="glass-element" fill="url(#glass-fill)" filter="url(#glass-effect)" stroke="none"/></g></g></g><g fill="#ffffff" fill-opacity="1"><g transform="translate(641.62043, 438.374998)"><g><path d="M 33.03125 -25.671875 C 33.03125 -30.085938 32.460938 -33.210938 31.328125 -35.046875 C 30.191406 -36.890625 28.242188 -37.8125 25.484375 -37.8125 C 24.628906 -37.8125 23.738281 -37.765625 22.8125 -37.671875 C 21.894531 -37.578125 21.003906 -37.472656 20.140625 -37.359375 L 20.140625 0 L 6.4375 0 L 6.4375 -46.734375 C 7.601562 -47.046875 8.96875 -47.367188 10.53125 -47.703125 C 12.09375 -48.035156 13.75 -48.335938 15.5 -48.609375 C 17.25 -48.890625 19.039062 -49.109375 20.875 -49.265625 C 22.71875 -49.421875 24.53125 -49.5 26.3125 -49.5 C 29.8125 -49.5 32.648438 -49.050781 34.828125 -48.15625 C 37.003906 -47.269531 38.796875 -46.210938 40.203125 -44.984375 C 42.160156 -46.398438 44.410156 -47.503906 46.953125 -48.296875 C 49.503906 -49.097656 51.851562 -49.5 54 -49.5 C 57.863281 -49.5 61.035156 -48.960938 63.515625 -47.890625 C 66.003906 -46.816406 67.984375 -45.296875 69.453125 -43.328125 C 70.929688 -41.367188 71.945312 -39.039062 72.5 -36.34375 C 73.050781 -33.644531 73.328125 -30.640625 73.328125 -27.328125 L 73.328125 0 L 59.609375 0 L 59.609375 -25.671875 C 59.609375 -30.085938 59.039062 -33.210938 57.90625 -35.046875 C 56.78125 -36.890625 54.835938 -37.8125 52.078125 -37.8125 C 51.335938 -37.8125 50.304688 -37.625 48.984375 -37.25 C 47.671875 -36.882812 46.582031 -36.425781 45.71875 -35.875 C 46.15625 -34.46875 46.429688 -32.984375 46.546875 -31.421875 C 46.671875 -29.859375 46.734375 -28.1875 46.734375 -26.40625 L 46.734375 0 L 33.03125 0 Z M 33.03125 -25.671875 " class="glass-element" fill="url(#glass-fill)" filter="url(#glass-effect)" stroke="none"/></g></g></g><g fill="#ffffff" fill-opacity="1"><g transform="translate(720.917751, 438.374998)"><g/></g></g><g fill="#ffffff" fill-opacity="1"><g transform="translate(742.995898, 438.374998)"><g><path d="M 19.875 -27.140625 C 19.875 -24.378906 19 -22.273438 17.25 -20.828125 C 15.5 -19.390625 13.519531 -18.671875 11.3125 -18.671875 C 9.101562 -18.671875 7.125 -19.390625 5.375 -20.828125 C 3.632812 -22.273438 2.765625 -24.378906 2.765625 -27.140625 C 2.765625 -29.898438 3.632812 -32 5.375 -33.4375 C 7.125 -34.882812 9.101562 -35.609375 11.3125 -35.609375 C 13.519531 -35.609375 15.5 -34.882812 17.25 -33.4375 C 19 -32 19.875 -29.898438 19.875 -27.140625 Z M 19.875 -27.140625 " class="glass-element" fill="url(#glass-fill)" filter="url(#glass-effect)" stroke="none"/></g></g></g><g fill="#ffffff" fill-opacity="1"><g transform="translate(765.625993, 438.374998)"><g/></g></g><g fill="#ffffff" fill-opacity="1"><g transform="translate(787.704141, 438.374998)"><g><path d="M 37.4375 -24.5625 C 37.4375 -33.394531 34.1875 -37.8125 27.6875 -37.8125 C 26.28125 -37.8125 24.882812 -37.625 23.5 -37.25 C 22.125 -36.882812 21.003906 -36.425781 20.140625 -35.875 L 20.140625 -10.953125 C 20.816406 -10.828125 21.675781 -10.71875 22.71875 -10.625 C 23.757812 -10.53125 24.894531 -10.484375 26.125 -10.484375 C 29.863281 -10.484375 32.679688 -11.769531 34.578125 -14.34375 C 36.484375 -16.925781 37.4375 -20.332031 37.4375 -24.5625 Z M 51.421875 -24.203125 C 51.421875 -20.335938 50.851562 -16.835938 49.71875 -13.703125 C 48.59375 -10.578125 46.953125 -7.910156 44.796875 -5.703125 C 42.648438 -3.492188 40.015625 -1.789062 36.890625 -0.59375 C 33.765625 0.601562 30.207031 1.203125 26.21875 1.203125 C 24.5625 1.203125 22.828125 1.125 21.015625 0.96875 C 19.210938 0.8125 17.4375 0.609375 15.6875 0.359375 C 13.9375 0.117188 12.265625 -0.164062 10.671875 -0.5 C 9.078125 -0.84375 7.664062 -1.195312 6.4375 -1.5625 L 6.4375 -69.1875 L 20.140625 -71.390625 L 20.140625 -47.28125 C 21.679688 -47.957031 23.28125 -48.476562 24.9375 -48.84375 C 26.59375 -49.21875 28.367188 -49.40625 30.265625 -49.40625 C 33.703125 -49.40625 36.738281 -48.804688 39.375 -47.609375 C 42.007812 -46.410156 44.21875 -44.707031 46 -42.5 C 47.78125 -40.289062 49.128906 -37.640625 50.046875 -34.546875 C 50.960938 -31.453125 51.421875 -28.003906 51.421875 -24.203125 Z M 51.421875 -24.203125 " class="glass-element" fill="url(#glass-fill)" filter="url(#glass-effect)" stroke="none"/></g></g></g><g fill="#ffffff" fill-opacity="1"><g transform="translate(843.267447, 438.374998)"><g><path d="M 47.75 -1.65625 C 45.414062 -0.976562 42.410156 -0.347656 38.734375 0.234375 C 35.054688 0.816406 31.191406 1.109375 27.140625 1.109375 C 23.023438 1.109375 19.601562 0.554688 16.875 -0.546875 C 14.144531 -1.648438 11.984375 -3.195312 10.390625 -5.1875 C 8.796875 -7.1875 7.660156 -9.566406 6.984375 -12.328125 C 6.316406 -15.085938 5.984375 -18.125 5.984375 -21.4375 L 5.984375 -48.390625 L 19.6875 -48.390625 L 19.6875 -23.09375 C 19.6875 -18.675781 20.269531 -15.484375 21.4375 -13.515625 C 22.601562 -11.554688 24.78125 -10.578125 27.96875 -10.578125 C 28.945312 -10.578125 29.988281 -10.625 31.09375 -10.71875 C 32.195312 -10.8125 33.179688 -10.921875 34.046875 -11.046875 L 34.046875 -48.390625 L 47.75 -48.390625 Z M 47.75 -1.65625 " class="glass-element" fill="url(#glass-fill)" filter="url(#glass-effect)" stroke="none"/></g></g></g><g fill="#ffffff" fill-opacity="1"><g transform="translate(897.45087, 438.374998)"><g><path d="M 20.140625 0 L 6.4375 0 L 6.4375 -48.390625 L 20.140625 -48.390625 Z M 21.4375 -62.375 C 21.4375 -59.863281 20.625 -57.882812 19 -56.4375 C 17.375 -55 15.457031 -54.28125 13.25 -54.28125 C 11.039062 -54.28125 9.125 -55 7.5 -56.4375 C 5.875 -57.882812 5.0625 -59.863281 5.0625 -62.375 C 5.0625 -64.882812 5.875 -66.859375 7.5 -68.296875 C 9.125 -69.742188 11.039062 -70.46875 13.25 -70.46875 C 15.457031 -70.46875 17.375 -69.742188 19 -68.296875 C 20.625 -66.859375 21.4375 -64.882812 21.4375 -62.375 Z M 21.4375 -62.375 " class="glass-element" fill="url(#glass-fill)" filter="url(#glass-effect)" stroke="none"/></g></g></g><g fill="#ffffff" fill-opacity="1"><g transform="translate(924.036638, 438.374998)"><g><path d="M 25.765625 0.921875 C 21.773438 0.859375 18.535156 0.429688 16.046875 -0.359375 C 13.566406 -1.160156 11.601562 -2.28125 10.15625 -3.71875 C 8.71875 -5.164062 7.738281 -6.914062 7.21875 -8.96875 C 6.695312 -11.019531 6.4375 -13.335938 6.4375 -15.921875 L 6.4375 -69.1875 L 20.140625 -71.390625 L 20.140625 -18.671875 C 20.140625 -17.453125 20.234375 -16.347656 20.421875 -15.359375 C 20.609375 -14.378906 20.960938 -13.550781 21.484375 -12.875 C 22.003906 -12.207031 22.753906 -11.65625 23.734375 -11.21875 C 24.710938 -10.789062 26.03125 -10.515625 27.6875 -10.390625 Z M 25.765625 0.921875 " class="glass-element" fill="url(#glass-fill)" filter="url(#glass-effect)" stroke="none"/></g></g></g><g fill="#ffffff" fill-opacity="1"><g transform="translate(953.106186, 438.374998)"><g><path d="M 18.125 -24.5625 C 18.125 -20.332031 19.070312 -16.925781 20.96875 -14.34375 C 22.875 -11.769531 25.695312 -10.484375 29.4375 -10.484375 C 30.664062 -10.484375 31.800781 -10.53125 32.84375 -10.625 C 33.882812 -10.71875 34.742188 -10.828125 35.421875 -10.953125 L 35.421875 -35.875 C 34.554688 -36.425781 33.429688 -36.882812 32.046875 -37.25 C 30.671875 -37.625 29.28125 -37.8125 27.875 -37.8125 C 21.375 -37.8125 18.125 -33.394531 18.125 -24.5625 Z M 49.125 -1.5625 C 47.894531 -1.195312 46.484375 -0.84375 44.890625 -0.5 C 43.296875 -0.164062 41.625 0.117188 39.875 0.359375 C 38.132812 0.609375 36.359375 0.8125 34.546875 0.96875 C 32.734375 1.125 31 1.203125 29.34375 1.203125 C 25.363281 1.203125 21.804688 0.617188 18.671875 -0.546875 C 15.546875 -1.710938 12.910156 -3.382812 10.765625 -5.5625 C 8.617188 -7.738281 6.976562 -10.375 5.84375 -13.46875 C 4.707031 -16.570312 4.140625 -20.054688 4.140625 -23.921875 C 4.140625 -27.847656 4.628906 -31.390625 5.609375 -34.546875 C 6.585938 -37.703125 8 -40.382812 9.84375 -42.59375 C 11.6875 -44.800781 13.941406 -46.488281 16.609375 -47.65625 C 19.273438 -48.820312 22.328125 -49.40625 25.765625 -49.40625 C 27.660156 -49.40625 29.359375 -49.21875 30.859375 -48.84375 C 32.367188 -48.476562 33.890625 -47.957031 35.421875 -47.28125 L 35.421875 -69.1875 L 49.125 -71.390625 Z M 49.125 -1.5625 " class="glass-element" fill="url(#glass-fill)" filter="url(#glass-effect)" stroke="none"/></g></g></g></svg>